# xmcd
#
# Track frame offsets:
#	150
#	37015
#	68495
#	133118
#	155585
#	185899
#
# Disc length: 2788 seconds
#
# Revision: 1
# Processed by: cddbd v1.5.2PL0 Copyright (c) Steve Scherf et al.
# Submitted via: audiograbber 1.83.01
#
DISCID=540ae206
DTITLE=Grateful Dead - 73-03-21 Community War Memorial, Rochester NY
DYEAR=1900
DGENRE=
TTITLE0=Truckin'
TTITLE1=Jam
TTITLE2=Eyes Of The World
TTITLE3=Not Fade Away
TTITLE4=Going Down The Road Feeling Bad
TTITLE5=One More Saturday Night
EXTD=
EXTT0=
EXTT1=
EXTT2=
EXTT3=
EXTT4=
EXTT5=
PLAYORDER=
